<svg width="356" height="356" viewBox="0 0 356 356" fill="none" xmlns="http://www.w3.org/2000/svg">
<g clip-path="url(#clip0_1155_3940)">
<path d="M355.27 0H0V355.27H355.27V0Z" fill="#26C65A"/>
<path d="M298.19 361.8H39.9902L49.3102 268.57L131.26 227.92V145.08H218.63V216H181.97V244.11L288.86 268.58L298.19 361.8Z" fill="#8812C6"/>
<path d="M237.34 103C237.338 99.6072 237.041 96.221 236.45 92.88C234.867 84.0606 231.245 75.7332 225.873 68.5623C220.5 61.3914 213.526 55.5756 205.506 51.5789C197.487 47.5823 188.644 45.5155 179.684 45.5434C170.724 45.5714 161.894 47.6934 153.9 51.74L154.02 52.07L167.48 91.32L160.25 95.06L161.5 98.26L164.75 106.54L174.28 103.73L197.41 112.63V117.21L202.83 125.21L202.5 129.06L201.5 140.32L193.64 146.16L194.18 150.56L201.59 148.56L209.73 153.15L214.73 151.75L216.97 152.68L213.61 154.92L193.26 159.42L187.32 152.31L198.32 133.41L198.07 129.55L197.78 124.88L185.01 120.48C184.483 121.084 183.787 121.515 183.012 121.718C182.236 121.921 181.418 121.887 180.663 121.62C179.907 121.353 179.25 120.865 178.775 120.219C178.3 119.574 178.03 118.801 178 118C177.995 117.662 178.039 117.325 178.13 117C178.351 116.144 178.85 115.385 179.548 114.842C180.247 114.299 181.105 114.003 181.99 114L182.99 111.64L173.19 107.89L160.19 110.7L164.8 106.49L159.55 111.23L181.25 114L149.32 124.63L153.55 133.54L166.92 161.64L179.72 191.64L184.89 203.77L179.89 191.64H218.43L225.32 177.2L227.23 160.86L236.23 146.05L235.23 126.18L229.85 125.01L228.04 124.61C228.211 124.17 228.296 123.702 228.29 123.23C228.281 122.451 228.045 121.691 227.61 121.044C227.176 120.398 226.562 119.892 225.844 119.589C225.126 119.286 224.335 119.2 223.569 119.341C222.802 119.481 222.094 119.842 221.53 120.38L211 124.68L212.25 120.76L225.32 116L232.1 113.46L237.1 116.97C237.19 115.97 237.24 114.97 237.28 113.97C237.42 110.17 237.34 106.34 237.34 103Z" fill="#26C65A"/>
<path d="M237.08 116.97L235.65 124.09L235.22 126.25L234.81 124.24L234.47 122.58L225.32 116L232.1 113.46L237.08 116.97Z" fill="#26C65A"/>
<path d="M184.84 203.84L179.67 191.71H157.72L145.79 186.38C145.79 186.38 138.79 166.88 133 147.7C132.3 150.03 131.13 151.62 129.51 152.09C125.01 153.42 118.77 145.73 115.51 134.86C115.51 134.71 115.43 134.57 115.38 134.43C112.11 123.32 113.15 113.23 117.71 111.88C118.552 111.656 119.443 111.698 120.26 112C121.945 112.689 123.427 113.793 124.57 115.21C123.763 111.493 123.331 107.704 123.28 103.9C123.28 103.6 123.28 103.29 123.28 102.98C123.28 101.98 123.28 101.05 123.35 100.09C123.857 90.108 126.958 80.4307 132.347 72.0131C137.736 63.5955 145.227 56.7285 154.08 52.09L154.72 51.76L168.31 91.34L161 95.06L162 98.2L164.72 106.54L160.11 110.75L181.94 114.05V116.05L178.08 117.05L152.18 124.05L156 133.38L167.6 161.65L179.86 191.65L184.84 203.84Z" fill="#F930B0"/>
<path d="M186 118C186 119.061 185.579 120.078 184.828 120.828C184.078 121.579 183.061 122 182 122C181.209 122 180.436 121.765 179.778 121.326C179.12 120.886 178.607 120.262 178.304 119.531C178.002 118.8 177.923 117.996 178.077 117.22C178.231 116.444 178.612 115.731 179.172 115.172C179.731 114.612 180.444 114.231 181.22 114.077C181.996 113.923 182.8 114.002 183.531 114.304C184.262 114.607 184.886 115.12 185.326 115.778C185.765 116.436 186 117.209 186 118Z" fill="#2D04C6"/>
<path d="M228.28 123.3C228.285 123.775 228.2 124.247 228.03 124.69C227.83 125.262 227.502 125.782 227.072 126.209C226.641 126.636 226.119 126.96 225.545 127.156C224.971 127.351 224.36 127.414 223.758 127.339C223.156 127.263 222.58 127.052 222.071 126.721C221.563 126.39 221.137 125.948 220.825 125.428C220.513 124.908 220.323 124.324 220.27 123.72C220.217 123.116 220.302 122.507 220.518 121.941C220.735 121.374 221.078 120.865 221.52 120.45C222.084 119.912 222.793 119.551 223.559 119.411C224.326 119.27 225.116 119.356 225.834 119.659C226.552 119.962 227.166 120.468 227.601 121.114C228.035 121.761 228.271 122.521 228.28 123.3Z" fill="#2D04C6"/>
<path d="M197.42 112.63V117.21L182.98 111.69L173.18 107.94L160.16 110.75L164.76 106.53L174.31 103.73L197.42 112.63Z" fill="#2D04C6"/>
<path d="M237.36 114.04L237.08 116.97L232.1 113.46L225.32 116.01L212.21 120.76L214.05 115.31L232.29 109.86L237.26 113.96L237.36 114.04Z" fill="#2D04C6"/>
<path d="M217.04 152.66L213.67 154.91L193.32 159.4L187.38 152.29L198.42 133.39L197.88 124.86L197.39 117.21L202.82 125.16L201.51 140.27L193.65 146.11L194.19 150.51L201.6 148.54L209.74 153.13L214.8 151.73L217.04 152.66Z" fill="#F930B0"/>
<path d="M217.63 175.27L210.14 172.91L206.14 173.28L198.14 171.1L184.04 173.53C184.42 173.4 201.26 166.92 201.26 166.92L207.62 169.66L213.62 168.41L217.63 175.27Z" fill="#8812C6"/>
<path d="M217.63 175.27L213.64 180.02L193.56 178.89L184.07 173.53L198.17 171.1L206.16 173.28L210.15 172.91L217.63 175.27Z" fill="#F930B0"/>
<path d="M236.2 146.12L230.98 162.73L225.32 177.27L227.24 160.93L236.2 146.12Z" fill="#F930B0"/>
<path d="M185.11 120.46C185.679 119.766 185.993 118.898 186 118C186 116.939 185.578 115.922 184.828 115.172C184.078 114.421 183.061 114 182 114L180.51 110.7L197.42 117.17L197.91 124.82L185.11 120.46Z" fill="#8812C6"/>
<path d="M228 124.69C228.17 124.247 228.255 123.775 228.25 123.3C228.241 122.521 228.005 121.761 227.571 121.114C227.136 120.468 226.522 119.962 225.804 119.659C225.086 119.356 224.295 119.27 223.529 119.411C222.763 119.551 222.054 119.912 221.49 120.45L211 124.69L212.25 120.76L225.32 116L234.47 122.56L235.22 126.24L228 124.69Z" fill="#8812C6"/>
<path d="M213.64 180.02L209.08 184.47L188.22 182.98L193.56 178.89L213.64 180.02Z" fill="#8812C6"/>
<path d="M217.04 152.66L214.8 151.73L210.96 124.69L215.12 123.02L217.04 152.66Z" fill="#F9D330"/>
<path d="M183.75 119.39C184.501 119.39 185.11 118.781 185.11 118.03C185.11 117.279 184.501 116.67 183.75 116.67C182.999 116.67 182.39 117.279 182.39 118.03C182.39 118.781 182.999 119.39 183.75 119.39Z" fill="#F9D330"/>
<path d="M226.14 124.38C226.891 124.38 227.5 123.771 227.5 123.02C227.5 122.269 226.891 121.66 226.14 121.66C225.389 121.66 224.78 122.269 224.78 123.02C224.78 123.771 225.389 124.38 226.14 124.38Z" fill="#F9D330"/>
<path d="M288.86 268.57V268.58L181.97 257.42V216H211.76L218.63 203.42V227.92L288.86 268.57Z" fill="#26C65A"/>
<path d="M184.84 203.84L178.11 200.83L165.31 195.11L157.72 191.71H179.67L184.84 203.84Z" fill="#F930B0"/>
<path d="M218.43 191.71L212.65 203.84H184.84L179.89 191.71H218.43Z" fill="#26C65A"/>
<path d="M232 264.91L213.16 236.41C213.789 234.309 214.274 232.167 214.61 230L226.56 236.08L228.17 240.44L230.75 223.56L232 264.91Z" fill="#BBBBBB"/>
<path d="M202.4 239.76L199.05 244.86L190.32 246.61L170.77 267.61L119.96 221.61L129.31 216.37L193.2 232.49L202.4 239.76Z" fill="#BBBBBB"/>
<path d="M79.8199 379.16L24.4399 381.27C24.4399 381.27 28.3799 283.85 39.4399 269.54C40.0087 268.845 40.6451 268.209 41.3399 267.64L72.4899 306.64L79.8199 379.16Z" fill="#BBBBBB"/>
<path d="M313.58 285.35L231.31 242.09L231.2 238.43L230.75 223.56C242.35 229.66 257.45 238.56 271.3 247.15C290 258.8 306.46 269.94 308.83 273C310.59 275.27 312.17 279.63 313.58 285.35Z" fill="#FEFEFE"/>
<path d="M323.87 384.74L300.57 383.85L190.63 379.65L169.53 378.85H169.04L79.8199 379.18L72.5299 306.7L41.3799 267.7C47.4799 262.56 98.5799 233.7 119.96 221.7L170.77 267.7L190.32 246.7L199.05 244.95L202.4 239.85L210.48 246.2C210.48 246.2 211.97 241.01 213.16 236.5L232 264.91L231.31 242.09L231.2 238.43L250 248L313.59 285.37C321.08 315.75 323.87 384.74 323.87 384.74Z" fill="#F9F9F9"/>
<path d="M290.81 383.67L291.57 304.61L299.95 391.12" fill="#BBBBBB"/>
<path d="M193.2 232.54L171.17 264.91L118.71 220.35L129.55 199.33L131.15 198.45V200.17L193.2 232.54Z" fill="#F9F9F9"/>
<path d="M214.61 230.01L230.65 256.47V223.51L219.3 203.72L218.52 203.54L218.57 206.6L214.61 230.01Z" fill="#F9F9F9"/>
<path d="M237.25 388.23L227.25 388.93L209.55 264.91L218.55 243.77L221.76 249.88L214.67 266.8L237.25 388.23Z" fill="#897FA9"/>
<path d="M195.23 237L184.83 251.76L181.83 249.22L191.14 235.55C191.14 235.55 192.86 236.21 195.23 237Z" fill="#50476E"/>
<path d="M196.12 391.12L202.69 267L184.83 251.76L195.23 237C199.14 238.3 204.88 239.88 207.77 239.16C209.47 238.73 212.17 236.89 214.15 235.39C215.6 234.3 216.67 233.39 216.67 233.39L220.37 239.5L223.75 245.09L221.75 249.87L218.54 243.76L209.54 264.9L227.24 388.9L196.12 391.12Z" fill="#6B5F93"/>
<path d="M230 80.34L166.89 84.11C166.89 84.11 126.66 98.58 122.7 102.66L102.3 80L194 44.6L230.33 48.45L230 80.34Z" fill="#2D04C6"/>
<path d="M230.28 48.45C229.79 58.22 236.56 34.22 169.34 59.64C137.45 71.64 106.34 86.3 102.34 79.96C96.3398 70.62 129.69 42.63 163.22 36.48C196.75 30.33 230.83 37.36 230.28 48.45Z" fill="#5736D1"/>
<path d="M161.24 37C161.4 38.67 161.24 40.3 157.08 41.6C153.93 42.6 150.71 42.41 149.96 40.91C147.58 36.15 150.96 37.39 154.13 36.31C157.3 35.23 160.81 32.19 161.24 37Z" fill="#2D04C6"/>
<path d="M193.28 69.07C152.44 79.65 122.77 95.75 122.7 101C128.04 95 162.79 86.07 176.42 83.58C207.65 77.88 234.01 79.83 235.01 86.2C256.72 80.57 270.31 79.11 270.31 71.6C270.31 62.23 248.27 54.81 193.28 69.07Z" fill="#5736D1"/>
<path d="M155.419 38.3191C158.608 37.4185 160.973 35.9086 160.701 34.9465C160.43 33.9845 157.624 33.9347 154.435 34.8353C151.246 35.7359 148.881 37.2459 149.153 38.2079C149.425 39.1699 152.23 39.2197 155.419 38.3191Z" fill="#5736D1"/>
<path d="M193.28 70.74C152.44 81.33 122.77 97.42 122.7 102.66C128.04 96.66 162.79 87.73 176.42 85.24C207.65 79.54 234.01 81.48 235.01 87.86C256.72 82.23 270.31 80.77 270.31 73.26C270.31 63.9 248.27 56.49 193.28 70.74Z" fill="#190593"/>
</g>
<defs>
<clipPath id="clip0_1155_3940">
<rect width="355.27" height="355.27" fill="white"/>
</clipPath>
</defs>
</svg>
