<svg width="356" height="356" viewBox="0 0 356 356" fill="none" xmlns="http://www.w3.org/2000/svg">
<g clip-path="url(#clip0_1155_3864)">
<path d="M356 0H-0.559814V355.27H356V0Z" fill="#F9D330"/>
<path d="M298.713 361.8H39.5754L48.9293 268.57L131.177 227.92V145.08H218.864V216H182.071V244.11L289.349 268.58L298.713 361.8Z" fill="#8812C6"/>
<path d="M237.642 103C237.641 99.6072 237.342 96.221 236.749 92.88C235.158 84.0624 231.521 75.7372 226.128 68.5687C220.734 61.4002 213.735 55.5868 205.686 51.5923C197.638 47.5978 188.764 45.5327 179.773 45.5618C170.781 45.5909 161.921 47.7134 153.899 51.76L154.019 52.09L167.528 91.34L160.272 95.08L161.527 98.28L164.778 106.56L174.353 103.75L197.567 112.65V117.23L203.017 125.23L202.675 129.08L201.672 140.34L193.783 146.18L194.315 150.58L201.762 148.58L209.932 153.17L214.95 151.77L217.198 152.7L213.826 154.94L193.402 159.44L187.44 152.33L198.48 133.43L198.229 129.57L197.938 124.9L185.122 120.5C184.607 121.145 183.904 121.616 183.11 121.848C182.315 122.08 181.468 122.062 180.685 121.796C179.902 121.53 179.22 121.029 178.733 120.362C178.246 119.695 177.978 118.895 177.966 118.07C177.962 117.732 178.006 117.395 178.096 117.07C178.318 116.214 178.819 115.455 179.52 114.912C180.221 114.369 181.083 114.073 181.971 114.07L182.974 111.71L173.129 107.96L160.081 110.77L164.698 106.56L159.439 111.3L181.218 114.07L149.172 124.7L153.417 133.61L166.836 161.71L179.682 191.71L184.871 203.84L179.903 191.71H218.583L225.498 177.27L227.415 160.93L236.448 146.12L235.444 126.25L230.034 125.08L228.228 124.68C228.399 124.24 228.485 123.772 228.479 123.3C228.47 122.521 228.233 121.761 227.797 121.114C227.361 120.468 226.745 119.962 226.024 119.659C225.303 119.356 224.51 119.27 223.741 119.411C222.971 119.551 222.26 119.912 221.694 120.45L211.096 124.68L212.35 120.76L225.578 116L232.383 113.46L237.401 116.97C237.481 115.97 237.542 114.97 237.582 113.97C237.722 110.17 237.642 106.34 237.642 103Z" fill="#26C65A"/>
<path d="M237.381 116.97L235.946 124.09L235.514 126.25L235.103 124.24L234.761 122.58L225.578 116L232.383 113.46L237.381 116.97Z" fill="#26C65A"/>
<path d="M184.951 203.84L179.763 191.71H157.683L145.709 186.38C145.709 186.38 138.684 166.88 132.873 147.7C132.17 150.03 130.996 151.62 129.37 152.09C124.854 153.42 118.591 145.73 115.32 134.86C115.269 134.71 115.239 134.57 115.189 134.43C111.907 123.32 112.951 113.23 117.528 111.88C118.369 111.657 119.26 111.699 120.077 112C121.772 112.686 123.264 113.791 124.412 115.21C123.602 111.493 123.169 107.704 123.118 103.9C123.118 103.6 123.118 103.29 123.118 102.98C123.118 101.98 123.118 101.05 123.188 100.09C123.695 90.1075 126.806 80.4294 132.215 72.0114C137.624 63.5935 145.143 56.727 154.03 52.09L154.672 51.76L168.311 91.34L161.045 95.08L162.049 98.22L164.768 106.56L160.152 110.77L182.061 114.07V116.07L178.187 117.07L152.183 124.07L156.027 133.4L167.669 161.67L179.973 191.67L184.951 203.84Z" fill="#F930B0"/>
<path d="M186.065 118C186.065 119.061 185.642 120.078 184.889 120.828C184.136 121.579 183.115 122 182.051 122C181.257 122 180.48 121.765 179.82 121.326C179.16 120.886 178.646 120.262 178.342 119.531C178.038 118.8 177.958 117.996 178.113 117.22C178.268 116.444 178.651 115.731 179.212 115.172C179.773 114.612 180.489 114.231 181.267 114.077C182.046 113.923 182.853 114.002 183.587 114.304C184.321 114.607 184.947 115.12 185.389 115.778C185.83 116.436 186.065 117.209 186.065 118Z" fill="#2D04C6"/>
<path d="M228.549 123.3C228.554 123.775 228.469 124.247 228.298 124.69C228.097 125.262 227.768 125.782 227.336 126.209C226.904 126.636 226.38 126.96 225.804 127.156C225.228 127.351 224.615 127.414 224.011 127.339C223.407 127.263 222.828 127.052 222.318 126.721C221.808 126.39 221.38 125.948 221.067 125.428C220.753 124.908 220.563 124.324 220.51 123.72C220.456 123.116 220.542 122.507 220.759 121.941C220.976 121.374 221.32 120.865 221.765 120.45C222.331 119.912 223.042 119.551 223.811 119.411C224.58 119.27 225.374 119.356 226.094 119.659C226.815 119.962 227.431 120.468 227.867 121.114C228.303 121.761 228.54 122.521 228.549 123.3Z" fill="#2D04C6"/>
<path d="M197.567 112.63V117.21L183.084 111.69L173.249 107.94L160.182 110.75L164.798 106.53L174.383 103.73L197.567 112.63Z" fill="#2D04C6"/>
<path d="M237.662 114.04L237.381 116.97L232.383 113.46L225.578 116.01L212.411 120.76L214.267 115.31L232.574 109.86L237.552 113.96L237.662 114.04Z" fill="#2D04C6"/>
<path d="M217.258 152.66L213.886 154.91L193.462 159.4L187.5 152.29L198.581 133.39L198.039 124.86L197.547 117.21L202.997 125.16L201.682 140.27L193.793 146.11L194.335 150.51L201.772 148.54L209.942 153.13L215.02 151.73L217.258 152.66Z" fill="#F930B0"/>
<path d="M217.86 175.27L210.343 172.91L206.329 173.28L198.3 171.1L184.148 173.53C184.53 173.4 201.431 166.92 201.431 166.92L207.814 169.66L213.836 168.41L217.86 175.27Z" fill="#8812C6"/>
<path d="M217.861 175.27L213.856 180.02L193.703 178.89L184.179 173.53L198.33 171.1L206.339 173.28L210.343 172.91L217.861 175.27Z" fill="#F930B0"/>
<path d="M236.488 146.12L231.259 162.73L225.578 177.27L227.505 160.93L236.488 146.12Z" fill="#F930B0"/>
<path d="M185.222 120.46C185.769 119.767 186.066 118.911 186.065 118.03C186.065 116.969 185.642 115.952 184.889 115.202C184.137 114.451 183.116 114.03 182.051 114.03L180.565 110.73L197.537 117.2L198.029 124.85L185.222 120.46Z" fill="#8812C6"/>
<path d="M228.298 124.69C228.469 124.247 228.554 123.775 228.549 123.3C228.54 122.521 228.303 121.761 227.867 121.114C227.431 120.468 226.815 119.962 226.094 119.659C225.374 119.356 224.58 119.27 223.811 119.411C223.042 119.551 222.33 119.912 221.764 120.45L211.166 124.69L212.411 120.76L225.578 116L234.761 122.56L235.514 126.24L228.298 124.69Z" fill="#8812C6"/>
<path d="M213.856 180.02L209.279 184.47L188.344 182.98L193.703 178.89L213.856 180.02Z" fill="#8812C6"/>
<path d="M217.258 152.66L215.02 151.73L211.166 124.69L215.331 123.02L217.258 152.66Z" fill="#F9D330"/>
<path d="M183.857 119.39C184.611 119.39 185.222 118.781 185.222 118.03C185.222 117.279 184.611 116.67 183.857 116.67C183.103 116.67 182.492 117.279 182.492 118.03C182.492 118.781 183.103 119.39 183.857 119.39Z" fill="#F9D330"/>
<path d="M226.401 124.38C227.155 124.38 227.766 123.771 227.766 123.02C227.766 122.269 227.155 121.66 226.401 121.66C225.647 121.66 225.036 122.269 225.036 123.02C225.036 123.771 225.647 124.38 226.401 124.38Z" fill="#F9D330"/>
<path d="M289.349 268.57V268.58L182.071 257.42V216H211.969L218.864 203.42V227.92L289.349 268.57Z" fill="#26C65A"/>
<path d="M184.951 203.84L178.197 200.83L165.35 195.11L157.733 191.71H179.763L184.951 203.84Z" fill="#F930B0"/>
<path d="M218.663 191.71L212.852 203.84H184.951L179.983 191.71H218.663Z" fill="#26C65A"/>
<path d="M79.9214 379.72L24.3403 381.83C24.3403 381.83 24.511 377.59 24.8823 370.76C24.9827 368.95 25.0931 366.96 25.2235 364.81C25.5447 359.4 25.9662 353.03 26.4781 346.18C26.6286 344.23 26.7792 342.23 26.9498 340.18C27.4717 333.66 28.0939 326.84 28.8065 320.12C29.0206 318.12 29.2414 316.12 29.4689 314.12C29.9306 310.18 30.4223 306.32 30.9543 302.61C31.2453 300.61 31.5464 298.61 31.8575 296.61C32.269 294 32.7106 291.5 33.1823 289.13C33.5838 287.04 34.0153 285.05 34.4569 283.2C35.0872 280.452 35.8815 277.744 36.8355 275.09C37.4501 273.271 38.3256 271.549 39.4349 269.98C39.6513 269.705 39.886 269.444 40.1375 269.2C40.4787 268.84 40.8902 268.47 41.3418 268.08L42.2451 269.2L46.9521 275.09L53.0542 282.71L57.3397 288.06L62.7392 294.81L62.8095 294.9C60.9227 296 59.7384 296.71 59.4072 296.9L62.8396 302.48C62.94 302.42 64.4053 301.53 66.9645 300.06L72.6049 307.11L72.9161 310.11C66.5129 313.11 62.6389 315.01 62.5586 315.05L65.5695 320.89C65.71 320.82 68.6607 319.33 73.5985 317.02L75.4051 334.92C67.5266 338.5 62.6489 340.97 62.5485 341.02L65.5594 346.85C65.72 346.77 69.6542 344.79 76.1277 341.85L77.9743 360.2C68.6105 364.4 62.679 367.39 62.5686 367.45L65.5795 373.29C65.7602 373.19 70.7181 370.7 78.6869 367.09L79.9214 379.72Z" fill="#BBBBBB"/>
<path d="M314.53 285.91L312.272 284.72L231.981 242.65L231.841 239L224.815 225.47C224.969 224.246 225.002 223.01 224.916 221.78C224.867 220.996 224.776 220.215 224.645 219.44C237.531 226.56 259.711 240.02 272.136 247.72C285.184 255.82 297.157 263.72 304.032 268.72L296.494 269.36L296.996 275.23L310.124 274.11C311.589 276.29 312.924 279.92 314.138 284.57C314.299 285 314.419 285.45 314.53 285.91Z" fill="#FEFEFE"/>
<path d="M324.857 385.29L301.473 384.4L191.134 380.21L169.957 379.4H169.465L79.9213 379.74L78.2854 363.42V363.31L77.9843 360.39L75.7964 338.69V338.2L75.5354 335.72L73.5282 316.34L72.9461 310.47L72.6149 307.24L64.1643 296.69L62.7592 294.94L57.3597 288.19L53.0742 282.84L46.9721 275.22L42.2651 269.33L41.3618 268.21C47.2933 263.21 103.256 231.55 126.289 218.65C127.945 229.31 156.809 246.13 193.733 243.65C216.817 242.07 223.742 233.65 224.846 225.51C224.999 224.286 225.033 223.05 224.946 221.82L250.779 248.59L312.553 284.75L314.56 285.96L312.302 284.77L290.272 286.62L290.764 292.5L315.574 290.42C316.467 294.64 317.29 299.42 318.033 304.42L292.059 306.58L292.561 312.45L318.805 310.25C319.468 315.25 320.07 320.54 320.622 325.83L292.681 328.18L293.173 334.05L321.164 331.7C321.666 336.97 322.107 342.2 322.499 347.21L292.059 349.76L292.561 355.64L322.971 353.09C324.295 371.27 324.857 385.29 324.857 385.29Z" fill="#F9F9F9"/>
<path d="M291.688 384.23L292.44 305.17L300.851 391.67" fill="#BBBBBB"/>
<path d="M224.815 225.46L220.49 217.18L224.916 221.77C225.003 223 224.969 224.236 224.815 225.46V225.46Z" fill="#6B5F93"/>
<path d="M224.816 225.46C223.762 233.64 216.787 242.02 193.703 243.6C156.779 246.11 127.915 229.29 126.259 218.6L128.427 217.39C129.319 216.802 130.369 216.499 131.438 216.52V219.63C139.055 224.95 160.543 237.83 189.217 236.94C220.921 235.94 218.924 218.8 218.924 218.8L219.125 216.97L220.45 217.15L224.816 225.46Z" fill="#6B5F93"/>
<path d="M224.876 221.77L220.45 217.18C221.684 217.83 223.079 218.58 224.605 219.43C224.736 220.205 224.827 220.986 224.876 221.77Z" fill="#6B5F93"/>
<path d="M128.51 220.239L43.4858 269.625L46.7965 275.283L131.82 225.898L128.51 220.239Z" fill="#6B5F93"/>
<path d="M225.044 221.767L221.518 227.295L297.216 275.234L300.742 269.706L225.044 221.767Z" fill="#6B5F93"/>
<path d="M145.755 231.179L53.9062 283.062L57.1483 288.76L148.997 236.877L145.755 231.179Z" fill="#6B5F93"/>
<path d="M208.036 235.254L204.639 240.862L290.644 292.597L294.042 286.989L208.036 235.254Z" fill="#6B5F93"/>
<path d="M66.9646 300.19C64.4053 301.66 62.95 302.55 62.8396 302.61L59.4072 297C59.7384 296.79 60.9227 296.08 62.8095 295L64.1444 296.66L66.9646 300.19Z" fill="#BBBBBB"/>
<path d="M296.434 307.06L292.741 312.47C292.55 312.34 273.451 299.47 249.434 286.6C217.93 269.75 192.358 260.66 175.447 260.3C140.019 259.52 82.7314 291.08 66.9644 300.19L64.1542 296.69L62.8093 295C77.5727 286.35 135.894 253.73 174.212 253.73H175.637C218.693 254.67 293.283 304.92 296.434 307.06Z" fill="#6B5F93"/>
<path d="M73.6083 317.19C68.5901 319.5 65.6896 320.99 65.5792 321.06L62.5684 315.22C62.6486 315.22 66.5227 313.22 72.9258 310.28V310.47L73.5079 316.34L73.6083 317.19Z" fill="#BBBBBB"/>
<path d="M296.706 328.52L293.263 334.11C292.51 333.65 217.348 287.99 176.109 287.11H174.513C141.614 287.11 92.7176 308.3 73.6085 317.22L73.5181 316.37L72.936 310.5V310.31C80.2625 306.93 90.9111 302.23 102.975 297.61C133.495 285.92 158.174 280.19 176.24 280.61C194.305 281.03 220.219 289.21 252.987 305.03C277.245 316.66 296.515 328.41 296.706 328.52Z" fill="#6B5F93"/>
<path d="M76.1177 342C69.6443 345 65.71 346.95 65.5495 347L62.5386 341.17C62.6389 341.12 67.5567 338.65 75.3951 335.07L75.4553 335.7L75.7363 338.37V338.67L76.1177 342Z" fill="#BBBBBB"/>
<path d="M296.194 350L292.982 355.73C292.229 355.31 217.419 313.93 176.109 313.05C144.525 312.38 97.0533 332.37 76.1175 342L75.7763 338.71V338.41L75.4953 335.74L75.4351 335.11C82.5809 331.86 92.2158 327.68 102.975 323.56C133.495 311.87 158.174 306.15 176.24 306.56C194.305 306.97 220.068 314.41 252.676 328.73C276.824 339.27 296.003 349.9 296.194 350Z" fill="#6B5F93"/>
<path d="M297.92 379L294.618 384.66C293.855 384.22 217.338 340.35 176.109 339.46C145.739 338.81 100.707 357.26 78.6568 367.23L78.2855 363.42V363.31L77.9844 360.39V360.34C84.799 357.34 93.4403 353.59 102.975 349.94C133.495 338.25 158.174 332.53 176.24 332.94C194.305 333.35 220.4 341.22 253.519 356.41C278.128 367.61 297.719 378.88 297.92 379Z" fill="#6B5F93"/>
<path d="M47.1728 269.31V275.2H36.8354C37.45 273.381 38.3256 271.659 39.4349 270.09C39.6512 269.815 39.8859 269.554 40.1374 269.31H47.1728Z" fill="#6B5F93"/>
<path d="M57.3498 288.61L33.1824 289.24C33.5838 287.15 34.0154 285.16 34.457 283.31L53.0543 282.82L57.1892 282.72L57.3398 288.17L57.3498 288.61Z" fill="#6B5F93"/>
<path d="M66.9644 300.19L30.9541 302.68C31.2452 300.68 31.5462 298.68 31.8574 296.68L62.7391 294.88L64.0438 294.8L64.1442 296.63L66.9644 300.19Z" fill="#6B5F93"/>
<path d="M74.4917 316.26L73.6085 317.19L28.8064 320.19C29.0205 318.19 29.2413 316.19 29.4688 314.19L72.936 310.47L74.4917 316.26Z" fill="#6B5F93"/>
<path d="M76.0473 341.59L26.478 346.18C26.6286 344.23 26.7791 342.23 26.9497 340.18L75.4753 335.68L75.7262 338.35V338.65L76.0473 341.59Z" fill="#6B5F93"/>
<path d="M322.981 353.09L292.571 355.64L292.069 349.76L322.539 347.21C322.69 349.2 322.84 351.17 322.981 353.09Z" fill="#6B5F93"/>
<path d="M321.164 331.7L293.143 334.05L292.651 328.18L320.592 325.83L321.164 331.7Z" fill="#6B5F93"/>
<path d="M318.816 310.25L292.571 312.45L292.069 306.58L318.003 304.4C318.284 306.31 318.555 308.27 318.816 310.25Z" fill="#6B5F93"/>
<path d="M315.544 290.37L290.734 292.45L290.242 286.57L312.272 284.72L314.53 285.91C314.881 287.32 315.223 288.8 315.544 290.37Z" fill="#6B5F93"/>
<path d="M310.124 274.11L296.916 275.22L296.415 269.35L303.952 268.71C306.038 270.124 307.972 271.75 309.723 273.56C309.893 273.73 310.034 273.91 310.124 274.11Z" fill="#6B5F93"/>
<path d="M142.518 29.08C130.936 33.34 123.79 39.54 119.655 47C94.2731 57.26 97.7356 43 106.969 28.72C107.993 48.66 123.067 34.48 142.518 29.08Z" fill="#190593"/>
<path d="M157.953 25.22C157.953 25.42 157.873 26.08 156.799 27.29C154.24 30.19 146.01 36.29 119.725 46.93H119.655C123.79 39.51 130.936 33.31 142.508 29.05C123.067 34.45 107.993 48.63 106.969 28.65C112.138 20.65 119.113 12.65 123.84 9.05001C136.998 -1.08999 150.466 5.17001 157.963 25.12C157.97 25.1536 157.967 25.1884 157.953 25.22V25.22Z" fill="#5736D1"/>
<path d="M239.92 231.44L228.539 197.63L217.399 215.39L214.679 204.78L200.568 216.87V202.32L184.51 218.59C184.51 218.59 153.718 200.97 146.071 196.78L133.144 150.55L124.302 115.55C122.295 113.55 119.545 111.3 117.276 111.75C113.172 112.58 111.255 128.59 117.748 141.6C124.713 155.69 130.926 150.85 130.926 150.85V161.6C130.926 161.6 115.56 163.73 102.935 144.98C91.1519 127.49 104.821 95.28 115.349 76.63C114.145 65.88 114.848 55.63 119.675 46.96C123.81 39.54 130.956 33.34 142.528 29.08C144.535 28.33 146.703 27.65 149.001 27.08C151.95 26.2842 154.947 25.6796 157.974 25.27C190.17 20.96 218.723 40.45 231.59 63.59C226.281 61.752 220.7 60.8157 215.08 60.82L207.894 63.82L190.552 50.44L196.744 65.44L181.689 55.82L180.686 61.49L170.288 54.25L174.734 62.48C174.734 62.48 163.825 64 157.954 69.16C156.598 70.3313 155.576 71.8388 154.993 73.5299C154.409 75.2209 154.285 77.0355 154.632 78.79C150.396 86.95 157.281 96.79 143.321 123.2C141.885 125.91 161.386 158 170.358 172.47L193.181 195.92L200.748 187.78L209.099 195.92C209.099 195.92 233.085 155.97 232.032 159.3C230.978 162.63 239.92 231.44 239.92 231.44Z" fill="#2D04C6"/>
<path d="M239.92 231.44L181.8 228.44L146.723 199.21L146.041 196.74C153.688 200.93 184.48 218.55 184.48 218.55L200.538 202.28V216.83L214.649 204.74L217.369 215.35L228.509 197.59L239.92 231.44Z" fill="#190593"/>
<path d="M232.353 79.42C217.589 63.24 202.113 77.79 202.113 77.79C202.113 77.79 178.719 59.45 159.961 73.1C157.772 74.551 155.962 76.5018 154.682 78.79C154.335 77.0355 154.46 75.2209 155.043 73.5299C155.626 71.8388 156.648 70.3313 158.004 69.16C163.875 63.98 174.754 62.5 174.754 62.5L170.308 54.27L180.656 61.51L181.659 55.84L196.714 65.46L190.521 50.46L207.844 63.75L215.03 60.75C220.65 60.7457 226.231 61.682 231.54 63.52C231.811 63.99 232.072 64.47 232.323 64.94C237.14 74.1 232.353 79.42 232.353 79.42Z" fill="#190593"/>
<path d="M188.374 138C185.34 137.996 182.375 137.096 179.854 135.413C177.333 133.731 175.369 131.342 174.211 128.547C173.052 125.753 172.751 122.679 173.346 119.715C173.94 116.75 175.403 114.028 177.55 111.891C179.697 109.755 182.431 108.301 185.407 107.712C188.384 107.124 191.468 107.428 194.271 108.586C197.074 109.744 199.469 111.703 201.155 114.217C202.84 116.731 203.739 119.687 203.739 122.71C203.734 126.767 202.113 130.656 199.232 133.523C196.351 136.39 192.446 138 188.374 138ZM188.374 110.05C185.858 110.048 183.399 110.789 181.306 112.18C179.214 113.571 177.583 115.549 176.619 117.864C175.655 120.179 175.401 122.727 175.891 125.186C176.38 127.644 177.591 129.903 179.369 131.675C181.147 133.448 183.412 134.656 185.879 135.146C188.346 135.635 190.904 135.385 193.228 134.426C195.552 133.468 197.538 131.844 198.936 129.76C200.334 127.676 201.08 125.226 201.08 122.72C201.085 121.053 200.76 119.402 200.125 117.86C199.489 116.318 198.554 114.916 197.374 113.735C196.194 112.554 194.791 111.616 193.247 110.975C191.703 110.334 190.047 110.003 188.374 110V110.05Z" fill="#F9D330"/>
<path d="M227.696 138C224.66 138.002 221.692 137.107 219.167 135.427C216.642 133.748 214.673 131.36 213.51 128.566C212.348 125.772 212.043 122.696 212.635 119.73C213.227 116.763 214.688 114.037 216.835 111.898C218.982 109.759 221.717 108.303 224.695 107.713C227.672 107.124 230.759 107.427 233.563 108.586C236.367 109.744 238.764 111.706 240.449 114.222C242.135 116.738 243.033 119.695 243.031 122.72C243.023 126.77 241.405 130.652 238.531 133.516C235.657 136.38 231.761 137.992 227.696 138V138ZM227.696 110.05C225.18 110.048 222.721 110.789 220.629 112.18C218.536 113.571 216.905 115.549 215.941 117.864C214.977 120.179 214.723 122.727 215.213 125.186C215.702 127.644 216.913 129.903 218.691 131.675C220.469 133.448 222.734 134.656 225.201 135.146C227.668 135.635 230.226 135.385 232.55 134.426C234.874 133.468 236.86 131.844 238.258 129.76C239.656 127.676 240.402 125.226 240.402 122.72C240.407 121.053 240.083 119.402 239.447 117.86C238.811 116.318 237.876 114.917 236.696 113.735C235.516 112.554 234.113 111.616 232.569 110.975C231.025 110.334 229.369 110.003 227.696 110V110.05Z" fill="#F9D330"/>
<path d="M201.451 119.22L200.447 116.8C204.818 114.965 209.734 114.893 214.157 116.6L213.213 119.04C209.424 117.581 205.214 117.645 201.471 119.22H201.451Z" fill="#F9D330"/>
<path d="M174.343 121.39H169.786V124.01H174.343V121.39Z" fill="#F9D330"/>
<path d="M246.273 121.39H241.716V124.01H246.273V121.39Z" fill="#F9D330"/>
<g opacity="0.81">
<path opacity="0.81" d="M199.092 113.7C186.497 115.46 179.02 120.14 174.674 125.7C174.453 124.715 174.341 123.709 174.343 122.7C174.358 119.842 175.251 117.057 176.902 114.719C178.552 112.382 180.882 110.604 183.576 109.624C186.271 108.644 189.202 108.509 191.976 109.238C194.749 109.967 197.233 111.524 199.092 113.7V113.7Z" fill="#30F2BF"/>
<path opacity="0.81" d="M202.395 122.7C202.338 126.111 201.033 129.384 198.726 131.904C196.418 134.424 193.267 136.018 189.863 136.386C186.459 136.755 183.038 135.872 180.241 133.904C177.444 131.937 175.465 129.019 174.674 125.7C179.01 120.12 186.497 115.44 199.093 113.7C201.228 116.216 202.399 119.405 202.395 122.7Z" fill="#26C6A0"/>
<path opacity="0.81" d="M240.061 116.11C232.596 114.64 225.042 113.658 217.449 113.17C218.973 111.552 220.862 110.319 222.959 109.571C225.056 108.823 227.302 108.583 229.51 108.871C231.719 109.158 233.827 109.964 235.662 111.223C237.496 112.481 239.004 114.156 240.061 116.11Z" fill="#30F2BF"/>
<path opacity="0.81" d="M241.717 122.7C241.73 124.989 241.18 127.246 240.114 129.273C239.049 131.301 237.501 133.037 235.606 134.331C233.711 135.624 231.527 136.435 229.244 136.692C226.962 136.949 224.651 136.645 222.514 135.805C220.377 134.966 218.479 133.618 216.986 131.878C215.494 130.139 214.452 128.061 213.952 125.827C213.452 123.593 213.51 121.271 214.119 119.065C214.729 116.858 215.872 114.834 217.449 113.17C225.042 113.658 232.596 114.64 240.061 116.11C241.154 118.135 241.724 120.4 241.717 122.7V122.7Z" fill="#26C6A0"/>
</g>
<path d="M169.786 124H169.696L126.972 120.91C126.794 120.906 126.618 120.866 126.456 120.792C126.295 120.718 126.149 120.612 126.03 120.481C125.91 120.349 125.818 120.195 125.76 120.028C125.702 119.86 125.679 119.682 125.692 119.505C125.705 119.328 125.754 119.156 125.836 118.998C125.917 118.841 126.03 118.701 126.168 118.589C126.305 118.476 126.464 118.392 126.635 118.343C126.806 118.293 126.986 118.279 127.162 118.3L169.887 121.39C170.236 121.403 170.565 121.554 170.802 121.809C171.039 122.064 171.165 122.403 171.151 122.75C171.138 123.097 170.987 123.425 170.731 123.662C170.475 123.898 170.135 124.023 169.786 124.01V124Z" fill="#F9D330"/>
</g>
<defs>
<clipPath id="clip0_1155_3864">
<rect width="355.27" height="355.27" fill="white"/>
</clipPath>
</defs>
</svg>
