<svg width="40" height="32" viewBox="0 0 40 32" fill="none" xmlns="http://www.w3.org/2000/svg">
<path d="M33.8838 3.04634C31.2945 1.83489 28.526 0.954453 25.6315 0.453125C25.276 1.09581 24.8607 1.96023 24.5744 2.64788C21.4975 2.18515 18.4489 2.18515 15.4286 2.64788C15.1423 1.96023 14.7176 1.09581 14.3589 0.453125C11.4613 0.954453 8.68959 1.83812 6.10032 3.05276C0.877738 10.9448 -0.538019 18.6408 0.169861 26.2275C3.63375 28.8142 6.99068 30.3856 10.291 31.4138C11.1058 30.2924 11.8326 29.1002 12.4586 27.8438C11.2663 27.3907 10.1242 26.8316 9.04512 26.1825C9.3314 25.9704 9.61143 25.7487 9.88197 25.5205C16.4637 28.5989 23.6148 28.5989 30.1179 25.5205C30.3916 25.7487 30.6716 25.9704 30.9547 26.1825C29.8725 26.8348 28.7273 27.3939 27.5349 27.847C28.161 29.1002 28.8846 30.2956 29.7026 31.417C33.0061 30.3888 36.3661 28.8174 39.83 26.2275C40.6606 17.4325 38.4111 9.80723 33.8838 3.04634ZM13.3553 21.5617C11.3795 21.5617 9.75925 19.7172 9.75925 17.4711C9.75925 15.2249 11.3449 13.3773 13.3553 13.3773C15.3657 13.3773 16.9859 15.2217 16.9513 17.4711C16.9545 19.7172 15.3657 21.5617 13.3553 21.5617ZM26.6446 21.5617C24.6688 21.5617 23.0485 19.7172 23.0485 17.4711C23.0485 15.2249 24.6342 13.3773 26.6446 13.3773C28.6549 13.3773 30.2752 15.2217 30.2406 17.4711C30.2406 19.7172 28.6549 21.5617 26.6446 21.5617Z" fill="#F9D330"/>
</svg>
