<?xml version="1.0" standalone="no"?>
<!DOCTYPE svg PUBLIC "-//W3C//DTD SVG 20010904//EN"
 "http://www.w3.org/TR/2001/REC-SVG-20010904/DTD/svg10.dtd">
<svg version="1.0" xmlns="http://www.w3.org/2000/svg"
 width="261.000000pt" height="261.000000pt" viewBox="0 0 261.000000 261.000000"
 preserveAspectRatio="xMidYMid meet">
<metadata>
Created by potrace 1.14, written by Peter Selinger 2001-2017
</metadata>
<g transform="translate(0.000000,261.000000) scale(0.100000,-0.100000)"
fill="#000000" stroke="none">
<path d="M1240 2544 c-54 -21 -361 -130 -745 -264 l-80 -28 3 -473 c2 -260 5
-476 8 -480 2 -4 33 -17 69 -30 36 -12 62 -26 58 -29 -5 -4 -33 -16 -63 -26
-30 -10 -60 -22 -66 -26 -7 -5 -11 -107 -12 -312 l-2 -303 48 -18 c26 -9 61
-21 77 -27 17 -5 39 -14 50 -18 11 -5 265 -95 565 -201 300 -105 596 -210 659
-232 l113 -40 52 18 c44 15 78 28 206 76 l25 9 0 590 0 590 -25 9 c-107 37
-498 177 -551 198 l-66 25 4 211 c2 116 5 212 7 214 2 3 29 -3 59 -13 l55 -17
0 -169 c-1 -93 1 -170 3 -172 9 -6 256 -89 281 -93 18 -3 66 9 132 33 l104 39
-2 339 -1 339 -65 23 c-98 34 -475 165 -653 228 -87 31 -164 56 -170 56 -7 -1
-41 -12 -77 -26z m-170 -1257 l0 -63 -45 -16 c-44 -17 -47 -16 -130 10 -47 15
-85 29 -85 32 0 4 216 87 258 99 1 1 2 -27 2 -62z m617 -440 c1 -154 -2 -207
-10 -204 -7 2 -104 37 -217 77 -113 40 -208 76 -212 79 -4 4 36 22 90 40 53
18 106 36 117 41 11 4 36 14 55 21 19 7 38 15 43 19 4 3 7 45 8 92 l1 85 61
-21 62 -21 2 -208z"/>
</g>
</svg>
