<svg width="33" height="33" viewBox="0 0 33 33" fill="none" xmlns="http://www.w3.org/2000/svg">
<g clip-path="url(#clip0_1157_4483)">
<path d="M16.5 2.97413C20.9055 2.97413 21.428 2.99063 23.1688 3.07038C27.6403 3.27388 29.7289 5.3955 29.9324 9.834C30.0121 11.5734 30.0272 12.0959 30.0272 16.5014C30.0272 20.9083 30.0107 21.4294 29.9324 23.1688C29.7275 27.6031 27.6444 29.7289 23.1688 29.9324C21.428 30.0121 20.9083 30.0286 16.5 30.0286C12.0945 30.0286 11.572 30.0121 9.83263 29.9324C5.35013 29.7275 3.2725 27.5963 3.069 23.1674C2.98925 21.428 2.97275 20.9069 2.97275 16.5C2.97275 12.0945 2.99063 11.5734 3.069 9.83263C3.27388 5.3955 5.357 3.2725 9.83263 3.069C11.5734 2.99063 12.0945 2.97413 16.5 2.97413V2.97413ZM16.5 0C12.0189 0 11.4579 0.01925 9.69787 0.099C3.70563 0.374 0.375375 3.69875 0.100375 9.6965C0.01925 11.4579 0 12.0189 0 16.5C0 20.9811 0.01925 21.5435 0.099 23.3035C0.374 29.2957 3.69875 32.626 9.6965 32.901C11.4579 32.9807 12.0189 33 16.5 33C20.9811 33 21.5435 32.9807 23.3035 32.901C29.2903 32.626 32.6288 29.3012 32.8996 23.3035C32.9808 21.5435 33 20.9811 33 16.5C33 12.0189 32.9807 11.4579 32.901 9.69787C32.6315 3.71112 29.3026 0.375375 23.3049 0.100375C21.5435 0.01925 20.9811 0 16.5 0V0ZM16.5 8.02725C11.8209 8.02725 8.02725 11.8209 8.02725 16.5C8.02725 21.1791 11.8209 24.9741 16.5 24.9741C21.1791 24.9741 24.9728 21.1805 24.9728 16.5C24.9728 11.8209 21.1791 8.02725 16.5 8.02725ZM16.5 22C13.4626 22 11 19.5388 11 16.5C11 13.4626 13.4626 11 16.5 11C19.5374 11 22 13.4626 22 16.5C22 19.5388 19.5374 22 16.5 22ZM25.3083 5.71313C24.2138 5.71313 23.3269 6.6 23.3269 7.69312C23.3269 8.78625 24.2138 9.67312 25.3083 9.67312C26.4014 9.67312 27.2869 8.78625 27.2869 7.69312C27.2869 6.6 26.4014 5.71313 25.3083 5.71313Z" fill="#F9D330"/>
</g>
<defs>
<clipPath id="clip0_1157_4483">
<rect width="33" height="33" fill="white"/>
</clipPath>
</defs>
</svg>
