<svg width="39" height="39" viewBox="0 0 39 39" fill="none" xmlns="http://www.w3.org/2000/svg">
<path d="M39 19.5C39 30.2689 30.2689 39 19.5 39C8.73106 39 0 30.2689 0 19.5C0 8.73106 8.73106 0 19.5 0C30.2712 0 39 8.73106 39 19.5Z" fill="#F9D330"/>
<path d="M9.62064 20.155L9.70475 20.0228L14.7775 12.0872C14.8516 11.971 15.0259 11.983 15.082 12.1092C15.9295 14.0085 16.6607 16.3705 16.3182 17.8411C16.1719 18.4461 15.7712 19.2655 15.3204 20.0228C15.2623 20.133 15.1982 20.2412 15.1301 20.3454C15.0981 20.3934 15.0439 20.4215 14.9858 20.4215H9.76888C9.62861 20.4215 9.5465 20.2693 9.62064 20.155Z" fill="#2D04C6"/>
<path d="M32.2313 21.6296V22.8857C32.2313 22.9578 32.1872 23.022 32.1231 23.05C31.7304 23.2183 30.3861 23.8354 29.8271 24.6127C28.4007 26.5981 27.3108 29.437 24.8746 29.437H14.7111C11.109 29.437 8.18994 26.508 8.18994 22.8938V22.7775C8.18994 22.6814 8.26807 22.6033 8.36423 22.6033H14.03C14.1422 22.6033 14.2243 22.7074 14.2143 22.8176C14.1742 23.1863 14.2424 23.5629 14.4166 23.9055C14.7532 24.5887 15.4504 25.0154 16.2037 25.0154H19.0085V22.8256H16.2358C16.0935 22.8256 16.0094 22.6614 16.0915 22.5451C16.1216 22.4991 16.1556 22.451 16.1917 22.3969C16.4541 22.0243 16.8288 21.4453 17.2014 20.7861C17.4559 20.3414 17.7023 19.8665 17.9006 19.3897C17.9407 19.3036 17.9727 19.2155 18.0048 19.1293C18.0589 18.977 18.115 18.8348 18.155 18.6925C18.1951 18.5723 18.2272 18.4461 18.2593 18.3279C18.3534 17.9232 18.3935 17.4945 18.3935 17.0497C18.3935 16.8754 18.3855 16.6931 18.3694 16.5188C18.3614 16.3285 18.3374 16.1381 18.3133 15.9478C18.2973 15.7795 18.2673 15.6132 18.2352 15.439C18.1951 15.1845 18.1391 14.9321 18.0749 14.6776L18.0529 14.5815C18.0048 14.4072 17.9647 14.2409 17.9087 14.0666C17.7504 13.5196 17.5681 12.9867 17.3757 12.4879C17.3056 12.2895 17.2255 12.0992 17.1453 11.9089C17.0271 11.6224 16.9069 11.3619 16.7967 11.1155C16.7406 11.0033 16.6925 10.9011 16.6445 10.797C16.5904 10.6787 16.5343 10.5606 16.4782 10.4483C16.4381 10.3622 16.392 10.2821 16.36 10.2019L16.0174 9.56884C15.9693 9.4827 16.0494 9.38052 16.1436 9.40656L18.2873 9.98757H18.2933C18.2973 9.98757 18.2993 9.98957 18.3013 9.98957L18.5838 10.0677L18.8944 10.1558L19.0085 10.1879V8.91373C19.0085 8.29866 19.5014 7.7998 20.1104 7.7998C20.415 7.7998 20.6914 7.924 20.8898 8.12636C21.0881 8.32873 21.2123 8.6052 21.2123 8.91373V10.805L21.4407 10.8691C21.4587 10.8751 21.4768 10.8831 21.4928 10.8951C21.5489 10.9372 21.629 10.9993 21.7312 11.0754C21.8113 11.1395 21.8975 11.2177 22.0017 11.2978C22.2081 11.4641 22.4545 11.6785 22.7249 11.9249C22.797 11.987 22.8672 12.0511 22.9313 12.1152C23.2799 12.4398 23.6706 12.8204 24.0432 13.2412C24.1474 13.3593 24.2495 13.4795 24.3537 13.6058C24.4579 13.734 24.5681 13.8602 24.6643 13.9865C24.7905 14.1547 24.9267 14.329 25.0449 14.5114C25.101 14.5975 25.1651 14.6856 25.2192 14.7718C25.3715 15.0022 25.5057 15.2406 25.6339 15.479C25.688 15.5892 25.7441 15.7094 25.7922 15.8276C25.9344 16.1462 26.0467 16.4707 26.1188 16.7953C26.1408 16.8654 26.1568 16.9415 26.1648 17.0097V17.0256C26.1889 17.1218 26.1969 17.224 26.2049 17.3282C26.237 17.6607 26.2209 17.9933 26.1488 18.3279C26.1188 18.4702 26.0787 18.6044 26.0306 18.7466C25.9825 18.8829 25.9344 19.0251 25.8723 19.1593C25.7521 19.4378 25.6099 19.7163 25.4416 19.9767C25.3875 20.0729 25.3234 20.1751 25.2593 20.2712C25.1892 20.3734 25.117 20.4696 25.0529 20.5638C24.9648 20.684 24.8706 20.8102 24.7744 20.9224C24.6883 21.0406 24.6001 21.1588 24.504 21.263C24.3697 21.4212 24.2415 21.5715 24.1073 21.7157C24.0271 21.8099 23.941 21.9061 23.8529 21.9922C23.7667 22.0884 23.6786 22.1745 23.5984 22.2546C23.4642 22.3889 23.352 22.4931 23.2579 22.5792L23.0375 22.7816C23.0054 22.8096 22.9633 22.8256 22.9192 22.8256H21.2123V25.0154H23.36C23.8409 25.0154 24.2976 24.8451 24.6663 24.5326C24.7925 24.4224 25.3434 23.9455 25.9946 23.2263C26.0166 23.2023 26.0446 23.1843 26.0767 23.1762L32.0089 21.4613C32.1191 21.4292 32.2313 21.5134 32.2313 21.6296Z" fill="#2D04C6"/>
</svg>
