<svg width="37" height="29" viewBox="0 0 37 29" fill="none" xmlns="http://www.w3.org/2000/svg">
<path d="M37 3.43205C35.636 4.01611 34.174 4.40827 32.6371 4.58627C34.2058 3.67958 35.4111 2.24446 35.9763 0.53678C34.5114 1.37393 32.8822 1.98302 31.1549 2.31121C29.7707 0.887216 27.7983 0 25.6154 0C21.4226 0 18.0228 3.2763 18.0228 7.32023C18.0228 7.89316 18.092 8.45219 18.2217 8.98897C11.9123 8.68303 6.32094 5.76829 2.57509 1.33778C1.92051 2.42246 1.54852 3.67958 1.54852 5.02014C1.54852 7.55941 2.88653 9.80109 4.92526 11.1166C3.67953 11.0777 2.50877 10.7467 1.48508 10.1988C1.48508 10.2294 1.48508 10.26 1.48508 10.2906C1.48508 13.8395 4.10342 16.7959 7.57244 17.4718C6.93804 17.6386 6.26615 17.7276 5.57408 17.7276C5.08386 17.7276 4.60806 17.6831 4.14379 17.5941C5.1127 20.5005 7.9156 22.6226 11.2347 22.681C8.63939 24.6446 5.36646 25.8127 1.80804 25.8127C1.19383 25.8127 0.591147 25.7793 0 25.7098C3.35656 27.7902 7.34752 29 11.6355 29C25.5981 29 33.234 17.8444 33.234 8.17129C33.234 7.85422 33.2253 7.53438 33.2138 7.22288C34.696 6.19104 35.9821 4.90055 37 3.43205Z" fill="#F9D330"/>
</svg>
